<svg width="154" height="53" fill="none" xmlns="http://www.w3.org/2000/svg"><path d="M63.84 26.6c0-1.648.368-3.12 1.104-4.416.752-1.312 1.768-2.328 3.048-3.048 1.296-.736 2.744-1.104 4.344-1.104 1.872 0 3.512.48 4.92 1.44s2.392 2.288 2.952 3.984h-3.864c-.384-.8-.928-1.4-1.632-1.8-.688-.4-1.488-.6-2.4-.6-.976 0-1.848.232-2.616.696-.752.448-1.344 1.088-1.776 1.92-.416.832-.624 1.808-.624 2.928 0 1.104.208 2.08.624 2.928.432.832 1.024 1.48 1.776 1.944.768.448 1.64.672 2.616.672.912 0 1.712-.2 2.4-.6.704-.416 1.248-1.024 1.632-1.824h3.864c-.56 1.712-1.544 3.048-2.952 4.008-1.392.944-3.032 1.416-4.92 1.416-1.6 0-3.048-.36-4.344-1.08a8.195 8.195 0 01-3.048-3.048c-.736-1.296-1.104-2.768-1.104-4.416zm26.726-5.088c1.008 0 1.904.224 2.688.672.784.432 1.392 1.08 1.824 1.944.448.848.672 1.872.672 3.072V35h-3.36v-7.344c0-1.056-.264-1.864-.792-2.424-.528-.576-1.248-.864-2.16-.864-.928 0-1.664.288-2.208.864-.528.56-.792 1.368-.792 2.424V35h-3.36V17.24h3.36v6.12c.432-.576 1.008-1.024 1.728-1.344.72-.336 1.52-.504 2.4-.504zm7.515 6.792c0-1.344.264-2.536.792-3.576.544-1.04 1.272-1.84 2.184-2.4.928-.56 1.96-.84 3.096-.84.992 0 1.856.2 2.592.6.752.4 1.352.904 1.8 1.512v-1.896h3.384V35h-3.384v-1.944c-.432.624-1.032 1.144-1.8 1.56-.752.4-1.624.6-2.616.6a5.71 5.71 0 01-3.072-.864c-.912-.576-1.64-1.384-2.184-2.424-.528-1.056-.792-2.264-.792-3.624zm10.464.048c0-.816-.16-1.512-.48-2.088-.32-.592-.752-1.04-1.296-1.344a3.397 3.397 0 00-1.752-.48c-.624 0-1.2.152-1.728.456-.528.304-.96.752-1.296 1.344-.32.576-.48 1.264-.48 2.064s.16 1.504.48 2.112c.336.592.768 1.048 1.296 1.368.544.32 1.12.48 1.728.48.624 0 1.208-.152 1.752-.456.544-.32.976-.768 1.296-1.344.32-.592.48-1.296.48-2.112zM123.083 35l-4.512-5.664V35h-3.36V17.24h3.36v10.104l4.464-5.64h4.368l-5.856 6.672L127.451 35h-4.368zm9.503-11.232a4.755 4.755 0 011.68-1.656c.704-.4 1.504-.6 2.4-.6v3.528h-.888c-1.056 0-1.856.248-2.4.744-.528.496-.792 1.36-.792 2.592V35h-3.36V21.704h3.36v2.064zm5.479 4.536c0-1.344.264-2.536.792-3.576.544-1.04 1.272-1.84 2.184-2.4.928-.56 1.96-.84 3.096-.84.992 0 1.856.2 2.592.6.752.4 1.352.904 1.8 1.512v-1.896h3.384V35h-3.384v-1.944c-.432.624-1.032 1.144-1.8 1.56-.752.4-1.624.6-2.616.6a5.71 5.71 0 01-3.072-.864c-.912-.576-1.64-1.384-2.184-2.424-.528-1.056-.792-2.264-.792-3.624zm10.464.048c0-.816-.16-1.512-.48-2.088-.32-.592-.752-1.04-1.296-1.344a3.397 3.397 0 00-1.752-.48c-.624 0-1.2.152-1.728.456-.528.304-.96.752-1.296 1.344-.32.576-.48 1.264-.48 2.064s.16 1.504.48 2.112c.336.592.768 1.048 1.296 1.368.544.32 1.12.48 1.728.48.624 0 1.208-.152 1.752-.456.544-.32.976-.768 1.296-1.344.32-.592.48-1.296.48-2.112z" fill="#262226"/><path d="M44.159 0H6.84C3.063 0 0 3.129 0 6.988v39.024C0 49.872 3.063 53 6.841 53H44.16c3.777 0 6.84-3.129 6.84-6.988V6.988C51 3.128 47.937 0 44.159 0z" fill="url(#paint0_linear_6_33)"/><path d="M25.692 11.696c-2.836 0-5.608.858-7.966 2.467a14.581 14.581 0 00-5.281 6.571 14.935 14.935 0 00-.817 8.461 14.744 14.744 0 003.923 7.499 14.246 14.246 0 007.34 4.008 14.05 14.05 0 008.285-.833 14.407 14.407 0 006.434-5.393 14.868 14.868 0 002.416-8.136c0-3.883-1.51-7.608-4.198-10.354-2.688-2.746-6.334-4.29-10.136-4.29zm0 26.516c-2.3 0-4.547-.696-6.46-2.001a11.824 11.824 0 01-4.28-5.33 12.11 12.11 0 01-.662-6.86 11.955 11.955 0 013.182-6.08 11.551 11.551 0 015.953-3.25 11.398 11.398 0 016.717.676c2.125.9 3.94 2.422 5.217 4.375a12.057 12.057 0 011.958 6.598c0 1.56-.3 3.103-.885 4.544a11.892 11.892 0 01-2.52 3.852 11.608 11.608 0 01-3.771 2.573 11.39 11.39 0 01-4.45.903z" fill="#fff"/><path d="M25.692 20.046a6.07 6.07 0 00-3.424 1.06 6.267 6.267 0 00-2.271 2.824 6.42 6.42 0 00-.352 3.637 6.337 6.337 0 001.686 3.223c.862.88 1.96 1.48 3.155 1.723a6.043 6.043 0 003.561-.357 6.194 6.194 0 002.766-2.319 6.391 6.391 0 001.039-3.497c0-1.669-.649-3.27-1.804-4.45a6.098 6.098 0 00-4.356-1.845zm0 9.228a2.832 2.832 0 01-1.598-.494 2.924 2.924 0 01-1.06-1.318 2.996 2.996 0 01-.164-1.697c.111-.57.385-1.093.787-1.503a2.855 2.855 0 011.472-.804 2.818 2.818 0 011.662.167c.525.223.974.6 1.29 1.083a2.98 2.98 0 01.483 1.632c0 .778-.302 1.524-.841 2.075-.539.55-1.27.859-2.031.859z" fill="#fff"/><path d="M22.597 30.749l-5.706 7.264v.014l-.111.139a.877.877 0 01-.227.172.912.912 0 01-1.06-.178.952.952 0 01-.18-1.075l-.248-.25a.902.902 0 01-1.026-.188.958.958 0 01-.002-1.336l.013-.012.157-.125 7.053-5.55 1.337 1.125zm5.011 10.561a.792.792 0 010 .108.946.946 0 01-.299.593.909.909 0 01-.609.241h-.08a.614.614 0 01-.113-.016.952.952 0 01-.15 1.13.912.912 0 01-1.303 0 .952.952 0 01-.16-1.116h-.109a.912.912 0 01-.652-.276.952.952 0 01-.27-.665c0-.164.045-.324.127-.464l.842-8.788h1.837l.909 8.964a.914.914 0 01.031.29zm2.052-11.855l7.124 5.837h.013l.137.114a.894.894 0 01.263.65c0 .25-.097.489-.27.665a.912.912 0 01-1.051.183l-.246.253a.958.958 0 01-.183 1.049.902.902 0 01-1.024.2.874.874 0 01-.285-.198l-.01-.014-.123-.16-5.439-7.188 1.095-1.391zm10.341-5.103a.792.792 0 01.105 0c.224.026.43.134.581.305a.95.95 0 01.236.623v.081a.648.648 0 01-.016.116.912.912 0 011.106.153.952.952 0 010 1.332.912.912 0 01-1.092.162v.074a.96.96 0 01-.27.705.92.92 0 01-.652.276.878.878 0 01-.454-.13l-8.604-.86v-1.877l8.776-.927a.859.859 0 01.284-.033zM28.4 22.251l5.707-7.264v-.014l.111-.139a.879.879 0 01.227-.172.912.912 0 011.06.178.952.952 0 01.18 1.075l.247.25a.903.903 0 011.048.166.958.958 0 01.199 1.064.893.893 0 01-.193.29l-.014.011-.157.125-7.052 5.55-1.362-1.12zM23.387 11.69a.826.826 0 010-.108.946.946 0 01.299-.593.909.909 0 01.61-.242h.079a.612.612 0 01.113.017.952.952 0 01.15-1.13.912.912 0 011.304 0 .952.952 0 01.159 1.116h.111c.244 0 .479.099.652.276.172.176.27.416.27.665a.926.926 0 01-.128.464l-.826 8.795h-1.837l-.908-8.964a.913.913 0 01-.048-.297zm-2.043 11.846l-7.116-5.828h-.014l-.136-.114a.896.896 0 01-.264-.65c0-.25.098-.489.27-.665a.912.912 0 011.052-.183l.245-.253a.957.957 0 01.162-1.062.902.902 0 011.316-.014v.014l.123.16 5.451 7.203-1.09 1.392zm-10.345 5.119a.758.758 0 01-.105 0 .913.913 0 01-.581-.306.95.95 0 01-.236-.622v-.081a.656.656 0 01.016-.116.912.912 0 01-1.106-.153.952.952 0 010-1.332.912.912 0 011.092-.162v-.074a.96.96 0 01.265-.712.92.92 0 01.655-.28.86.86 0 01.454.13l8.603.86v1.876l-8.776.927a.859.859 0 01-.281.045z" fill="#fff"/><defs><linearGradient id="paint0_linear_6_33" x1="-.96" y1=".097" x2="50.006" y2="48.842" gradientUnits="userSpaceOnUse"><stop offset=".234" stop-color="#BB29F6"/><stop offset="1" stop-color="#8803AC"/></linearGradient></defs></svg>